<svg width="294" height="334" viewBox="0 0 294 334" fill="none" xmlns="http://www.w3.org/2000/svg">
<path d="M276.214 186.547C285.536 186.547 293.194 178.965 292.122 169.704C290.565 156.243 287.145 143.035 281.938 130.466C274.573 112.686 263.779 96.5306 250.171 82.9225C236.563 69.3144 220.408 58.5199 202.628 51.1552C184.848 43.7905 165.791 40 146.547 40C127.302 40 108.246 43.7905 90.4657 51.1552C72.6858 58.5199 56.5306 69.3144 42.9225 82.9225C29.3144 96.5307 18.5199 112.686 11.1552 130.466C5.9487 143.035 2.5285 156.243 0.97108 169.704C-0.100365 178.965 7.55736 186.547 16.8798 186.547V186.547C26.2023 186.547 33.6305 178.948 35.0205 169.73C36.3815 160.704 38.8362 151.856 42.3451 143.385C48.0132 129.701 56.321 117.267 66.7942 106.794C77.2675 96.321 89.701 88.0132 103.385 82.3451C117.069 76.677 131.735 73.7597 146.547 73.7597C161.358 73.7597 176.024 76.677 189.708 82.3451C203.392 88.0132 215.826 96.321 226.299 106.794C236.772 117.267 245.08 129.701 250.748 143.385C254.257 151.856 256.712 160.704 258.073 169.73C259.463 178.948 266.891 186.547 276.214 186.547V186.547Z" fill="#DD2C1C"/>
<line x1="135.5" y1="43" x2="135.5" y2="1.5299e-07" stroke="#DD2C1C" stroke-width="7"/>
</svg>
