<svg width="9" height="11" viewBox="0 0 9 11" fill="none" xmlns="http://www.w3.org/2000/svg">
<path d="M6.74484 6.43774C6.6476 6.98088 6.38629 7.48119 5.99608 7.87132C5.60588 8.26144 5.10551 8.52264 4.56234 8.61977C4.54172 8.62307 4.52088 8.62479 4.5 8.62492C4.40593 8.6249 4.31531 8.58952 4.24611 8.52581C4.17691 8.4621 4.13417 8.37471 4.12638 8.28097C4.1186 8.18723 4.14632 8.09398 4.20407 8.01972C4.26181 7.94547 4.34535 7.89563 4.43812 7.88008C5.21484 7.7493 5.87391 7.09024 6.00562 6.31211C6.02228 6.21402 6.07723 6.12657 6.15836 6.06899C6.2395 6.01141 6.34019 5.98842 6.43828 6.00508C6.53637 6.02174 6.62382 6.07668 6.6814 6.15782C6.73898 6.23896 6.76197 6.33965 6.74531 6.43774H6.74484ZM8.25 5.99992C8.25 7.09394 7.8154 8.14315 7.04182 8.91674C6.26823 9.69033 5.21902 10.1249 4.125 10.1249C3.03098 10.1249 1.98177 9.69033 1.20818 8.91674C0.434597 8.14315 0 7.09394 0 5.99992C0 4.69117 0.515625 3.35289 1.53094 2.02258C1.56308 1.98046 1.60378 1.94562 1.65036 1.92037C1.69694 1.89512 1.74834 1.88003 1.80117 1.87609C1.85401 1.87214 1.90708 1.87944 1.95689 1.8975C2.00671 1.91556 2.05212 1.94397 2.09016 1.98086L3.22078 3.07821L4.25203 0.246487C4.27263 0.190009 4.30651 0.139312 4.35081 0.0986704C4.39511 0.0580289 4.44854 0.0286338 4.50658 0.0129634C4.56462 -0.00270701 4.62557 -0.00419343 4.68431 0.00862948C4.74304 0.0214524 4.79783 0.0482088 4.84406 0.0866429C5.86922 0.937424 8.25 3.21321 8.25 5.99992ZM7.5 5.99992C7.5 3.83946 5.82234 1.97242 4.77141 1.01571L3.7275 3.87836C3.70607 3.93716 3.67028 3.98966 3.62337 4.03108C3.57646 4.07249 3.51993 4.10151 3.45894 4.11549C3.39794 4.12947 3.33441 4.12797 3.27415 4.11111C3.21389 4.09425 3.1588 4.06258 3.11391 4.01899L1.87781 2.81992C1.12922 3.90039 0.75 4.96867 0.75 5.99992C0.75 6.89503 1.10558 7.75347 1.73851 8.38641C2.37145 9.01934 3.22989 9.37492 4.125 9.37492C5.02011 9.37492 5.87855 9.01934 6.51149 8.38641C7.14442 7.75347 7.5 6.89503 7.5 5.99992Z" fill="white"/>
</svg>
