<svg width="24" height="39" viewBox="0 0 24 39" fill="none" xmlns="http://www.w3.org/2000/svg">
<path d="M9.27471 0.0280413C9.38615 0.00359936 9.70688 0.00045686 9.83427 0C12.245 0.00673868 14.6755 1.06306 16.5217 2.58531C17.4743 3.37088 18.401 4.33794 19.2955 5.20489C20.7908 6.66216 22.2721 8.13382 23.7391 9.61958C22.8877 10.5769 21.7497 11.691 20.8494 12.6054L16.0386 17.4833C16.4124 17.9273 16.9487 18.4381 17.3629 18.8521L19.6173 21.1015C20.1562 21.6366 20.7411 22.1769 21.2331 22.748C24.3682 26.3891 24.2851 31.7983 21.1574 35.4241C19.3417 37.5291 17.4217 38.7477 14.6228 38.9922C14.5193 38.9962 14.4158 38.999 14.3122 38.9996C9.60472 39.0384 7.05337 36.2956 3.99444 33.266L0 29.3564C0.546867 28.6883 2.21604 27.0847 2.876 26.4183L7.80048 21.3905C6.37144 20.0372 5.00558 18.554 3.57552 17.2092C1.75728 15.4995 0.617672 13.4428 0.382203 10.9331C0.12243 8.33501 0.917857 5.74164 2.58845 3.73963C4.38 1.57691 6.47019 0.290907 9.27471 0.0280413ZM7.69757 29.3284C8.41673 28.5712 9.13281 27.8014 9.89261 27.0858C10.3538 27.4924 10.7294 27.915 11.2041 28.3508C11.9994 29.0806 13.2297 30.8064 14.3481 29.554C14.5706 29.305 14.6432 29.0686 14.616 28.7334C14.5972 28.4821 14.5132 28.24 14.3723 28.0315C14.0477 27.5553 13.0859 26.6427 12.6456 26.2155C11.7699 25.3658 10.8832 24.4817 9.99825 23.6434C8.23112 25.4943 6.29614 27.5004 4.48479 29.3113C5.29 30.1679 6.18213 30.9783 6.98752 31.8206C8.83103 33.7497 10.9213 35.7296 13.7769 35.8084C13.9 35.8119 14.0233 35.813 14.1465 35.8107C19.0634 35.5469 22.115 29.5026 19.2974 25.4303C18.3285 24.0294 16.4754 22.3585 15.2295 21.1324L10.0607 16.0103L8.37313 14.3573C7.05081 13.0657 5.97233 11.9457 6.05709 9.92716C6.1477 7.76787 8.00521 5.9719 10.1392 5.85317C11.337 5.77945 12.5133 6.19656 13.3989 7.00908C13.9193 7.47982 15.6014 9.15221 16.0557 9.67948C15.4546 10.3687 14.5929 11.236 13.9276 11.8933C13.152 11.1553 12.4021 10.389 11.6361 9.64094C11.0721 9.09008 10.2561 8.662 9.60216 9.34398C9.14505 9.82071 9.16731 10.4585 9.5334 10.9963C9.95784 11.5558 10.5667 12.0968 11.0781 12.5961L13.772 15.2161C15.6035 13.5018 17.5534 11.4461 19.3322 9.64522L16.6568 6.99858C14.7676 5.14099 12.8155 3.21783 9.9374 3.22114C9.84747 3.22137 9.75754 3.22366 9.66773 3.22794C4.66317 3.53375 1.80879 9.61073 4.68366 13.7196C5.42826 14.7839 6.91615 16.0824 7.87259 17.038L14.4773 23.6183C15.274 24.4006 16.7932 25.7335 17.2658 26.6672C18.1369 28.3879 18.0216 30.1776 16.7317 31.659C15.9643 32.5487 14.875 33.0947 13.705 33.1763C12.5482 33.2506 11.2465 32.8051 10.4276 31.9965C9.57296 31.1525 8.51315 30.1919 7.69757 29.3284Z" fill="#DC2121"/>
</svg>
