<svg width="31" height="31" viewBox="0 0 31 31" fill="none" xmlns="http://www.w3.org/2000/svg">
<path d="M28.6025 8.55042C30.206 11.9041 30.5104 15.733 29.4569 19.2979C28.4035 22.8629 26.0668 25.9112 22.898 27.8547C19.7291 29.7982 15.9527 30.4989 12.2975 29.8217C8.64238 29.1446 5.36763 27.1375 3.1053 24.1878C0.842965 21.2381 -0.246566 17.555 0.046982 13.8493C0.340531 10.1435 1.99635 6.67787 4.69487 4.12118C7.39338 1.56448 10.9433 0.0979919 14.6595 0.00473654C18.3757 -0.0885189 21.9947 1.19807 24.818 3.6162L28.0926 0.3402C28.3094 0.123371 28.6035 0.00155748 28.9101 0.00155748C29.2168 0.00155748 29.5108 0.123371 29.7277 0.3402C29.9445 0.557029 30.0663 0.851113 30.0663 1.15776C30.0663 1.4644 29.9445 1.75848 29.7277 1.97531L15.861 15.842C15.6442 16.0588 15.3501 16.1806 15.0435 16.1806C14.7368 16.1806 14.4427 16.0588 14.2259 15.842C14.0091 15.6251 13.8873 15.3311 13.8873 15.0244C13.8873 14.7178 14.0091 14.4237 14.2259 14.2069L18.2299 10.2029C17.1448 9.4852 15.8492 9.15477 14.5529 9.26506C13.2566 9.37535 12.0354 9.9199 11.0871 10.8106C10.1388 11.7012 9.5189 12.8859 9.32767 14.1727C9.13643 15.4596 9.3851 16.7733 10.0334 17.9013C10.6817 19.0292 11.6918 19.9053 12.9 20.3878C14.1082 20.8703 15.4439 20.9309 16.6908 20.5598C17.9377 20.1887 19.0229 19.4076 19.7707 18.343C20.5185 17.2783 20.8851 15.9925 20.8111 14.6936C20.8026 14.5419 20.824 14.3899 20.8742 14.2465C20.9244 14.103 21.0023 13.9708 21.1036 13.8575C21.2049 13.7442 21.3275 13.6519 21.4644 13.5859C21.6013 13.52 21.7499 13.4816 21.9017 13.4731C22.2081 13.4559 22.5089 13.5611 22.7378 13.7656C22.8512 13.8668 22.9434 13.9894 23.0094 14.1264C23.0754 14.2633 23.1137 14.4119 23.1222 14.5636C23.2276 16.4021 22.7025 18.2215 21.6337 19.7211C20.565 21.2207 19.0165 22.3107 17.2443 22.811C15.4721 23.3113 13.5822 23.192 11.887 22.4727C10.1919 21.7534 8.79284 20.4772 7.92121 18.8551C7.04959 17.233 6.75753 15.362 7.09332 13.5514C7.42911 11.7408 8.37264 10.099 9.76796 8.89727C11.1633 7.69557 12.9269 7.00593 14.7673 6.94234C16.6076 6.87875 18.4146 7.44501 19.8896 8.54753L23.1757 5.26142C20.7675 3.26202 17.7055 2.22283 14.5778 2.34346C11.4502 2.4641 8.47732 3.73603 6.2303 5.91498C3.98328 8.09394 2.62052 11.0263 2.40376 14.1487C2.187 17.2712 3.13153 20.3637 5.05593 22.8322C6.98033 25.3008 9.74891 26.9713 12.8299 27.5229C15.9109 28.0745 19.0871 27.4684 21.7485 25.8209C24.4098 24.1734 26.3686 21.6008 27.2487 18.597C28.1288 15.5933 27.8681 12.3703 26.5167 9.54709C26.3845 9.2705 26.3676 8.95273 26.4698 8.6637C26.5719 8.37466 26.7846 8.13803 27.0612 8.00587C27.3378 7.8737 27.6556 7.85682 27.9446 7.95895C28.2337 8.06107 28.4703 8.27383 28.6025 8.55042Z" fill="#DD2C1C"/>
</svg>
