<svg width="40" height="40" viewBox="0 0 40 40" fill="none" xmlns="http://www.w3.org/2000/svg">
<path d="M7.38545 27.0785C4.92363 29.1465 4.10303 35.2846 4.10303 35.2846C4.10303 35.2846 10.2412 34.464 12.3091 32.0022C13.4743 30.6236 13.4579 28.5064 12.1614 27.2262C11.5234 26.6174 10.6831 26.2655 9.80168 26.2383C8.92024 26.211 8.05978 26.5103 7.38545 27.0785Z" stroke="#DD2C1C" stroke-width="2.46182" stroke-linecap="round" stroke-linejoin="round"/>
<path d="M19.6937 24.6165L14.77 19.6929C15.6434 17.4271 16.7431 15.2552 18.0524 13.2101C19.9648 10.1525 22.6275 7.63501 25.7875 5.89704C28.9474 4.15907 32.4995 3.25843 36.1058 3.2808C36.1058 7.7449 34.8256 15.5899 26.2585 21.3341C24.1855 22.645 21.9862 23.7446 19.6937 24.6165Z" stroke="#DD2C1C" stroke-width="2.46182" stroke-linecap="round" stroke-linejoin="round"/>
<path d="M14.771 19.6893H6.56494C6.56494 19.6893 7.46761 14.7164 9.84736 13.1245C12.5061 11.3519 18.0534 13.1245 18.0534 13.1245" stroke="#DD2C1C" stroke-width="2.46182" stroke-linecap="round" stroke-linejoin="round"/>
<path d="M19.6934 24.6232V32.8293C19.6934 32.8293 24.6662 31.9266 26.2582 29.5469C28.0307 26.8881 26.2582 21.3408 26.2582 21.3408" stroke="#DD2C1C" stroke-width="2.46182" stroke-linecap="round" stroke-linejoin="round"/>
</svg>
