<svg width="117" height="39" viewBox="0 0 117 39" fill="none" xmlns="http://www.w3.org/2000/svg">
<path d="M9.27471 0.0280413C9.38615 0.00359936 9.70688 0.00045686 9.83427 0C12.245 0.00673868 14.6755 1.06306 16.5217 2.58531C17.4743 3.37088 18.401 4.33794 19.2955 5.20489C20.7908 6.66216 22.2721 8.13382 23.7391 9.61958C22.8877 10.5769 21.7497 11.691 20.8494 12.6054L16.0386 17.4833C16.4124 17.9273 16.9487 18.4381 17.3629 18.8521L19.6173 21.1015C20.1562 21.6366 20.7411 22.1769 21.2331 22.748C24.3682 26.3891 24.2851 31.7983 21.1574 35.4241C19.3417 37.5291 17.4217 38.7477 14.6228 38.9922C14.5193 38.9962 14.4158 38.999 14.3122 38.9996C9.60472 39.0384 7.05337 36.2956 3.99444 33.266L0 29.3564C0.546867 28.6883 2.21604 27.0847 2.876 26.4183L7.80048 21.3905C6.37144 20.0372 5.00558 18.554 3.57552 17.2092C1.75728 15.4995 0.617672 13.4428 0.382203 10.9331C0.12243 8.33501 0.917857 5.74164 2.58845 3.73963C4.38 1.57691 6.47019 0.290907 9.27471 0.0280413ZM7.69757 29.3284C8.41673 28.5712 9.13281 27.8014 9.89261 27.0858C10.3538 27.4924 10.7294 27.915 11.2041 28.3508C11.9994 29.0806 13.2297 30.8064 14.3481 29.554C14.5706 29.305 14.6432 29.0686 14.616 28.7334C14.5972 28.4821 14.5132 28.24 14.3723 28.0315C14.0477 27.5553 13.0859 26.6427 12.6456 26.2155C11.7699 25.3658 10.8832 24.4817 9.99825 23.6434C8.23112 25.4943 6.29614 27.5004 4.48479 29.3113C5.29 30.1679 6.18213 30.9783 6.98752 31.8206C8.83103 33.7497 10.9213 35.7296 13.7769 35.8084C13.9 35.8119 14.0233 35.813 14.1465 35.8107C19.0634 35.5469 22.115 29.5026 19.2974 25.4303C18.3285 24.0294 16.4754 22.3585 15.2295 21.1324L10.0607 16.0103L8.37313 14.3573C7.05081 13.0657 5.97233 11.9457 6.05709 9.92716C6.1477 7.76787 8.00521 5.9719 10.1392 5.85317C11.337 5.77945 12.5133 6.19656 13.3989 7.00908C13.9193 7.47982 15.6014 9.15221 16.0557 9.67948C15.4546 10.3687 14.5929 11.236 13.9276 11.8933C13.152 11.1553 12.4021 10.389 11.6361 9.64094C11.0721 9.09008 10.2561 8.662 9.60216 9.34398C9.14505 9.82071 9.16731 10.4585 9.5334 10.9963C9.95784 11.5558 10.5667 12.0968 11.0781 12.5961L13.772 15.2161C15.6035 13.5018 17.5534 11.4461 19.3322 9.64522L16.6568 6.99858C14.7676 5.14099 12.8155 3.21783 9.9374 3.22114C9.84747 3.22137 9.75754 3.22366 9.66773 3.22794C4.66317 3.53375 1.80879 9.61073 4.68366 13.7196C5.42826 14.7839 6.91615 16.0824 7.87259 17.038L14.4773 23.6183C15.274 24.4006 16.7932 25.7335 17.2658 26.6672C18.1369 28.3879 18.0216 30.1776 16.7317 31.659C15.9643 32.5487 14.875 33.0947 13.705 33.1763C12.5482 33.2506 11.2465 32.8051 10.4276 31.9965C9.57296 31.1525 8.51315 30.1919 7.69757 29.3284Z" fill="#DC2121"/>
<path d="M33.6236 17V8.50571H35.4438V17H33.6236ZM37.1979 15.2162V12.2068H36.1665V10.7628H37.1979V9.01536H38.9089V10.7628H40.3408V12.2068H38.9089V14.9371C38.9089 15.3739 39.0788 15.556 39.5278 15.556H40.3772V17H38.9817C37.7925 17 37.1979 16.4054 37.1979 15.2162ZM43.0621 8.4693C42.9893 8.75245 42.8963 9.05986 42.783 9.39154C42.6698 9.71513 42.5484 10.0428 42.419 10.3745C42.2895 10.698 42.1561 11.0095 42.0185 11.3088H40.7201C40.7767 11.0661 40.8334 10.8153 40.89 10.5565C40.9466 10.2976 40.9992 10.0387 41.0478 9.77985C41.1044 9.51289 41.1529 9.25806 41.1934 9.01536C41.2419 8.77267 41.2824 8.54616 41.3147 8.33582H42.9772L43.0621 8.4693ZM43.5086 14.925H45.1347C45.1954 15.471 45.6686 15.8472 46.5059 15.8472C47.2219 15.8472 47.6587 15.6166 47.6587 15.1798C47.6587 14.6701 47.234 14.6337 46.2268 14.5003C44.7706 14.3304 43.6421 14.0027 43.6421 12.7164C43.6421 11.4787 44.7221 10.6657 46.3239 10.6778C47.9985 10.6778 49.1513 11.418 49.2362 12.6922H47.598C47.5495 12.1947 47.0762 11.8913 46.3846 11.8913C45.7171 11.8913 45.2803 12.134 45.2803 12.5344C45.2803 13.0077 45.8142 13.0562 46.7122 13.1654C48.1441 13.311 49.3333 13.6387 49.3333 15.0463C49.3333 16.2841 48.1684 17.0728 46.4938 17.0728C44.7585 17.0728 43.5814 16.2598 43.5086 14.925Z" fill="black"/>
<path d="M33.4164 31.256L35.8093 31.2886C35.8907 32.3955 36.7697 33.1606 38.1697 33.1606C39.2929 33.1606 40.1231 32.6722 40.1231 31.7769C40.1231 30.8165 39.1952 30.6211 37.2906 30.2467C35.3698 29.8886 33.6769 29.2701 33.6769 26.9585C33.6769 24.94 35.3535 23.5075 37.9255 23.5075C40.6114 23.5075 42.3206 24.9075 42.3532 27.0888H39.9603C39.8463 26.1283 39.1138 25.4609 37.9255 25.4609C36.8837 25.4609 36.1349 25.9005 36.1349 26.7795C36.1349 27.7073 37.0302 27.9027 38.9185 28.2608C40.8719 28.6189 42.5974 29.2049 42.5811 31.5002C42.5648 33.6326 40.8067 35.0977 38.1371 35.0977C35.2396 35.0977 33.4327 33.5675 33.4164 31.256ZM48.6366 26.5353C50.4923 26.5353 52.0225 27.5283 52.0225 30.3607V35H49.7272V30.556C49.7272 29.1887 49.1738 28.4236 48.0343 28.4236C46.8623 28.4236 46.1623 29.2701 46.1623 30.7025V35H43.8671V23.6052H46.1623V27.6585C46.6995 27.0074 47.4483 26.5353 48.6366 26.5353ZM57.5227 35.0977C54.8531 35.0977 53.1113 33.3885 53.1113 30.8165C53.1113 28.2445 54.8531 26.5353 57.5227 26.5353C60.1924 26.5353 61.9341 28.2445 61.9341 30.8165C61.9341 33.4047 60.1924 35.0977 57.5227 35.0977ZM57.5227 33.2257C58.8087 33.2257 59.6064 32.2327 59.6064 30.8165C59.6064 29.4003 58.8087 28.4073 57.5227 28.4073C56.2368 28.4073 55.4554 29.4003 55.4554 30.8165C55.4554 32.2327 56.2368 33.2257 57.5227 33.2257ZM64.8326 35L62.0978 26.633H64.5233L66.1999 32.5257L67.7789 26.633H69.8463L71.3764 32.542L73.0856 26.633H75.4297L72.6787 35H70.2369L68.7719 29.9537L67.2743 35H64.8326ZM79.7985 25.7051V23.6052H88.8329V25.7051H85.5285V35H83.0867V25.7051H79.7985ZM90.9803 25.7377C90.2315 25.7377 89.6455 25.1842 89.6455 24.4517C89.6455 23.7029 90.2315 23.1494 90.9803 23.1494C91.7291 23.1494 92.3151 23.7029 92.3151 24.4517C92.3151 25.1842 91.7291 25.7377 90.9803 25.7377ZM89.8245 35V26.633H92.136V35H89.8245ZM103.73 26.5353C105.456 26.5353 106.823 27.512 106.823 30.1979V35H104.528V30.3281C104.528 29.0747 104.072 28.4236 103.079 28.4236C102.086 28.4236 101.419 29.1561 101.419 30.4258V35H99.1236V30.3281C99.1236 29.0747 98.6678 28.4236 97.6586 28.4236C96.6656 28.4236 96.0145 29.1887 96.0145 30.4421V35H93.7192V26.633H95.7214L95.9331 27.6748C96.4377 27.0237 97.1702 26.5516 98.3911 26.5353C99.4166 26.519 100.377 26.8934 100.898 27.9515C101.484 27.0562 102.461 26.5353 103.73 26.5353ZM112.368 35.0977C109.584 35.0977 107.907 33.421 107.907 30.8328C107.907 28.2282 109.617 26.5353 112.205 26.5353C114.712 26.5353 116.405 28.098 116.437 30.556C116.437 30.8002 116.421 31.0769 116.372 31.3374H110.3V31.4513C110.349 32.6397 111.114 33.3559 112.27 33.3559C113.198 33.3559 113.849 32.9489 114.044 32.1676H116.307C116.047 33.7954 114.598 35.0977 112.368 35.0977ZM110.349 29.8398H114.126C113.963 28.8143 113.263 28.2445 112.221 28.2445C111.228 28.2445 110.479 28.8468 110.349 29.8398Z" fill="#DD2C1C"/>
</svg>
